<!-- Copyright © 2015 MODULUS Sp. z o. o. / FUTURAMO™ --><svg xmlns="http://www.w3.org/2000/svg" x="0px" y="0px" width="128px" height="128px" viewBox="0 0 32 32"><path  fill="#7ACA6D" d="M20,16h2v2h-2V16z M28,14v18H2V14C2,6.268,7.432,0,14.133,0h1.733C22.568,0,28,6.268,28,14z M11.221,19 C11.699,18.469,12,17.771,12,17c0-1.656-1.344-3-3-3H6.5C6.224,14,6,14.224,6,14.5v9C6,23.776,6.224,24,6.5,24h1 C7.776,24,8,23.776,8,23.5V20h1c0.551,0,1,0.449,1,1v2.5c0,0.276,0.224,0.5,0.5,0.5h1c0.276,0,0.5-0.224,0.5-0.5V21 C12,20.229,11.699,19.531,11.221,19z M16,14.5c0-0.276-0.224-0.5-0.5-0.5h-1c-0.276,0-0.5,0.224-0.5,0.5v9 c0,0.276,0.224,0.5,0.5,0.5h1c0.276,0,0.5-0.224,0.5-0.5V14.5z M23,14h-4.5c-0.276,0-0.5,0.224-0.5,0.5V20v3.5 c0,0.276,0.224,0.5,0.5,0.5h1c0.276,0,0.5-0.224,0.5-0.5V20h3c0.552,0,1-0.448,1-1v-4C24,14.448,23.552,14,23,14z M9,16H8v2h1 c0.137,0,0.272,0.009,0.405,0.027l0.33-0.366C9.855,17.527,10,17.303,10,17C10,16.449,9.551,16,9,16z"></path></svg>