<!-- Copyright © 2015 MODULUS Sp. z o. o. / FUTURAMO™ --><svg xmlns="http://www.w3.org/2000/svg" x="0px" y="0px" width="128px" height="128px" viewBox="0 0 32 32"><path  fill="#E16565" d="M16,4c2.004,0,12,0.579,12,12v10.092l-5.492-2.196c-0.611-0.245-1.304-0.172-1.852,0.193l-4.102,2.734 c-0.336,0.224-0.773,0.224-1.109,0l-4.102-2.734c-0.548-0.365-1.241-0.437-1.852-0.193L4,26.092V16C4,4.579,13.996,4,16,4 M16,0 C12,0,0,2,0,16c0,6.793,0,10.76,0,13.045c0,0.664,0.329,1.284,0.878,1.656c0.549,0.372,1.248,0.448,1.864,0.202l6.769-2.708 c0.306-0.122,0.652-0.086,0.926,0.096l4.453,2.969c0.672,0.448,1.547,0.448,2.219,0l4.453-2.969c0.274-0.183,0.62-0.219,0.926-0.096 l6.769,2.708c0.616,0.247,1.315,0.171,1.864-0.201C31.671,30.33,32,29.709,32,29.045c0-3.047,0-8.046,0-13.045C32,2,20,0,16,0L16,0z  M11,16c-1.657,0-3-1.343-3-3s1.343-3,3-3s3,1.343,3,3S12.657,16,11,16z M21,16c-1.657,0-3-1.343-3-3s1.343-3,3-3s3,1.343,3,3 S22.657,16,21,16z"></path></svg>