<!-- Copyright © 2015 MODULUS Sp. z o. o. / FUTURAMO™ --><svg xmlns="http://www.w3.org/2000/svg" x="0px" y="0px" width="128px" height="128px" viewBox="0 0 32 32"><path  fill="#F35CC0" d="M19,4h-1.435c0.308-1.135,0.783-2.299,1.525-3.177c0.126-0.149,0.154-0.357,0.072-0.533S18.903,0,18.708,0 H14.5C14.224,0,14,0.224,14,0.5V4h-1C5.82,4,0,10.268,0,18c0,7.732,6,14,16,14s16-6.268,16-14C32,10.268,26.18,4,19,4z  M20.253,15.241l1.542-4.627c0.044-0.132,0.153-0.231,0.288-0.263c0.135-0.032,0.277,0.008,0.375,0.106l3.085,3.085 c0.098,0.098,0.138,0.24,0.106,0.375c-0.032,0.135-0.131,0.244-0.263,0.288l-4.627,1.542c-0.144,0.048-0.302,0.01-0.409-0.097 C20.242,15.543,20.205,15.385,20.253,15.241z M6.458,13.542l3.086-3.085c0.098-0.098,0.24-0.138,0.375-0.106 c0.135,0.032,0.244,0.131,0.287,0.263l1.542,4.627c0.048,0.144,0.01,0.302-0.097,0.409s-0.266,0.145-0.409,0.097l-4.629-1.542 c-0.132-0.044-0.231-0.153-0.263-0.288C6.32,13.782,6.36,13.64,6.458,13.542z M27.826,20.538C27.166,22.333,24.417,28,16,28 S4.834,22.333,4.174,20.538c-0.045-0.123-0.027-0.26,0.047-0.367C4.296,20.064,4.419,20,4.55,20h3.203 c0.151,0,0.29,0.086,0.358,0.221l1.718,3.436c0.096,0.192,0.325,0.274,0.521,0.186l2.677-1.196c0.169-0.075,0.367-0.025,0.48,0.121 l2.177,2.821c0.076,0.098,0.193,0.156,0.317,0.156s0.241-0.057,0.317-0.156l2.177-2.821c0.113-0.146,0.311-0.196,0.48-0.121 l2.677,1.196c0.196,0.087,0.425,0.005,0.521-0.186l1.718-3.436C23.957,20.086,24.096,20,24.247,20h3.203 c0.131,0,0.253,0.064,0.328,0.171S27.871,20.415,27.826,20.538z"></path></svg>