<svg version="1.1" id="Layer_1" xmlns="http://www.w3.org/2000/svg" xmlns:xlink="http://www.w3.org/1999/xlink" x="0px" y="0px"
	 width="100%" viewBox="0 0 2044 2048" enable-background="new 0 0 2044 2048" xml:space="preserve">
<path fill="#C8E9EB" opacity="1.000000" stroke="none" 
	d="
M1.000000,1115.000000 
	C1.000000,1072.979126 1.000000,1030.958252 1.361007,988.794922 
	C2.156888,985.153015 2.563707,981.649658 3.031522,978.154602 
	C5.011106,963.364502 6.944747,948.567810 9.032349,933.792908 
	C9.835593,928.107971 11.004346,922.474792 12.322077,916.991211 
	C16.128454,925.362793 19.718784,933.520569 23.093992,941.766357 
	C44.503109,994.069580 70.766891,1043.720459 103.778580,1089.691040 
	C138.645889,1138.245605 179.874359,1180.506470 228.351562,1215.602295 
	C273.852295,1248.543091 323.704834,1272.996704 376.848297,1290.685669 
	C395.316864,1296.833130 414.294891,1301.722290 433.337372,1305.798218 
	C453.197968,1310.049438 473.362061,1313.022583 493.496307,1315.812500 
	C509.993378,1318.098145 526.622864,1320.461060 543.226501,1320.725098 
	C575.639893,1321.240845 608.085327,1320.665283 640.499084,1319.827393 
	C655.651794,1319.435791 670.801514,1317.730103 685.880981,1315.997437 
	C706.513489,1313.626465 727.219543,1311.447266 747.635925,1307.757324 
	C774.225098,1302.951782 800.570007,1296.786987 826.989563,1291.066284 
	C829.165894,1290.595093 831.108948,1289.046509 833.573486,1287.999023 
	C834.819397,1287.997803 835.700806,1288.176758 836.477905,1287.967773 
	C849.813660,1284.382690 863.165649,1280.852539 876.453430,1277.096069 
	C887.869995,1273.868530 899.261902,1270.533203 910.567200,1266.938721 
	C919.121582,1264.218994 927.487610,1260.912231 936.000122,1258.053101 
	C947.527222,1254.181519 959.209351,1250.753296 970.651123,1246.650269 
	C984.480896,1241.691162 998.188782,1236.375488 1011.835876,1230.929565 
	C1022.086609,1226.839111 1032.116699,1222.198975 1042.322021,1217.989990 
	C1051.764404,1214.095459 1061.513428,1210.889282 1070.765137,1206.598633 
	C1088.468018,1198.388794 1105.900513,1189.596436 1123.476807,1181.111572 
	C1127.350952,1179.241333 1131.497192,1177.904663 1135.274414,1175.869873 
	C1144.021973,1171.157837 1152.578613,1166.092773 1161.288818,1161.309448 
	C1175.791260,1153.345093 1190.458740,1145.675293 1204.857666,1137.529663 
	C1216.564575,1130.906738 1228.046753,1123.877441 1239.503418,1116.824829 
	C1249.878052,1110.438354 1260.105957,1103.811890 1270.350952,1097.217163 
	C1273.884399,1094.942627 1277.205933,1092.338013 1280.745972,1090.074463 
	C1286.535156,1086.372681 1292.629517,1083.116211 1298.223633,1079.148315 
	C1306.881592,1073.007202 1315.208862,1066.401489 1323.713623,1060.042236 
	C1326.837646,1057.706299 1330.117065,1055.577881 1333.236084,1053.235474 
	C1337.249634,1050.221191 1341.173218,1047.087036 1345.481934,1044.004883 
	C1347.944580,1045.824341 1350.260010,1047.458618 1352.144897,1049.492065 
	C1364.262573,1062.565430 1376.546631,1075.497681 1388.294556,1088.898438 
	C1435.165894,1142.364014 1476.886841,1199.419922 1510.414673,1262.360962 
	C1524.109497,1288.069824 1536.753662,1314.191284 1547.004883,1341.394165 
	C1553.832886,1359.513184 1559.796875,1378.010864 1565.093506,1396.638794 
	C1570.266479,1414.831787 1574.533325,1433.316040 1578.364380,1451.844727 
	C1580.731689,1463.294434 1581.836060,1475.037109 1582.978027,1486.700195 
	C1584.538696,1502.638428 1586.749390,1518.636963 1586.596191,1534.589722 
	C1586.370728,1558.066650 1584.850586,1581.573242 1582.824097,1604.975586 
	C1581.550903,1619.680054 1578.921021,1634.339966 1575.853638,1648.797852 
	C1572.063477,1666.662109 1568.137695,1684.603027 1562.532104,1701.948975 
	C1556.113770,1721.809448 1548.498047,1741.365723 1540.095581,1760.479736 
	C1531.160767,1780.805054 1521.334961,1800.804443 1510.746826,1820.321655 
	C1495.075562,1849.208862 1476.538452,1876.328369 1456.721191,1902.545898 
	C1448.798828,1913.026733 1440.702271,1923.375977 1432.420166,1934.026611 
	C1430.726074,1935.385132 1429.442627,1936.809082 1427.843750,1937.567749 
	C1419.617920,1941.469971 1411.273193,1945.121216 1403.045776,1949.019775 
	C1397.138672,1951.819092 1391.503296,1955.238403 1385.477783,1957.731201 
	C1371.900757,1963.348267 1358.226929,1968.749512 1344.461792,1973.888550 
	C1330.257080,1979.191650 1315.920410,1984.145752 1301.598633,1989.129150 
	C1289.959961,1993.178955 1278.363037,1997.399536 1266.558472,2000.908325 
	C1250.727051,2005.614136 1234.719971,2009.730347 1218.775757,2014.053955 
	C1208.845581,2016.746582 1198.956665,2019.634399 1188.933838,2021.931030 
	C1176.043579,2024.884644 1163.033447,2027.313354 1150.083374,2030.008179 
	C1143.921997,2031.290405 1137.830566,2033.004639 1131.618896,2033.928345 
	C1118.750854,2035.841919 1105.805542,2037.230469 1092.926880,2039.078125 
	C1082.813599,2040.528931 1072.802856,2042.824463 1062.656616,2043.882324 
	C1048.617798,2045.346313 1034.492065,2045.969116 1020.413513,2047.079346 
	C1019.563843,2047.146362 1018.802490,2048.333984 1018.000000,2049.000000 
	C976.312439,2049.000000 934.624878,2049.000000 892.794800,2048.638916 
	C892.141113,2047.869263 891.659058,2047.150146 891.114197,2047.098877 
	C883.115051,2046.346924 875.110718,2045.643188 867.100891,2045.013062 
	C860.871094,2044.522949 854.588318,2044.477295 848.407166,2043.650513 
	C838.763184,2042.360352 829.195251,2040.511719 819.576782,2039.017578 
	C807.865173,2037.198364 796.053528,2035.915283 784.434509,2033.638184 
	C772.118958,2031.224243 759.965332,2027.970459 747.765930,2024.981567 
	C737.776489,2022.534058 727.754150,2020.178345 717.876160,2017.331787 
	C709.413025,2014.892700 701.145142,2011.781250 692.770813,2009.028198 
	C681.393066,2005.288086 669.884033,2001.913574 658.639771,1997.810913 
	C647.742065,1993.834717 637.040710,1989.292358 626.377930,1984.708374 
	C616.211853,1980.338013 606.211609,1975.582520 596.129517,1971.015991 
	C586.511536,1966.659668 576.852844,1962.392090 567.264832,1957.971069 
	C556.090515,1952.818237 544.878357,1947.732544 533.861328,1942.258179 
	C524.838562,1937.774780 516.054260,1932.807129 507.208557,1927.973145 
	C500.571899,1924.346558 493.902954,1920.760864 487.434357,1916.849365 
	C479.984711,1912.344482 472.771362,1907.450684 465.397278,1902.818359 
	C456.588165,1897.284424 447.470703,1892.204468 438.931030,1886.286865 
	C425.737122,1877.143921 412.802155,1867.613770 399.980530,1857.951782 
	C389.533905,1850.079346 379.263306,1841.955322 369.191925,1833.608276 
	C358.957764,1825.126587 349.025513,1816.278198 339.030823,1807.510742 
	C329.933899,1799.531006 320.607056,1791.775269 311.963226,1783.325806 
	C299.617828,1771.258179 287.784088,1758.666016 275.776703,1746.254517 
	C273.346832,1743.742798 271.108978,1741.044678 268.796295,1738.420410 
	C261.120483,1729.710205 253.310089,1721.113403 245.819382,1712.246704 
	C238.625015,1703.730957 231.649475,1695.022705 224.799957,1686.225952 
	C220.631805,1680.873291 217.018097,1675.091797 212.920120,1669.680908 
	C204.778900,1658.931763 196.283127,1648.446533 188.317215,1637.571289 
	C184.171234,1631.911133 180.849091,1625.648315 177.141495,1619.665894 
	C170.707062,1609.283813 164.286163,1598.893188 157.815002,1588.533936 
	C151.916016,1579.090698 145.648087,1569.862793 140.100403,1560.219116 
	C132.280426,1546.625610 124.776443,1532.839844 117.515137,1518.938843 
	C112.257698,1508.874146 107.540482,1498.523193 102.716507,1488.236938 
	C97.750885,1477.648560 92.913368,1466.999512 88.089874,1456.345337 
	C85.983528,1451.692871 83.981735,1446.989746 82.056892,1442.259033 
	C79.225159,1435.299316 76.514656,1428.290283 73.734093,1421.309570 
	C71.243057,1415.055786 68.503647,1408.890381 66.272202,1402.546021 
	C62.448219,1391.673462 58.916992,1380.697510 55.296638,1369.753906 
	C52.023438,1359.859497 48.683571,1349.985229 45.579361,1340.037598 
	C42.571785,1330.399902 39.657661,1320.726318 37.012505,1310.984131 
	C34.148895,1300.437500 31.514294,1289.823730 29.015173,1279.184082 
	C25.885107,1265.858154 22.981180,1252.479004 20.006826,1239.116699 
	C18.638330,1232.968506 17.031643,1226.853149 16.065596,1220.640015 
	C14.168128,1208.436523 13.397104,1196.012695 10.799383,1183.973511 
	C6.127361,1162.320801 5.525208,1140.268188 2.932298,1118.417603 
	C2.790049,1117.218872 1.666676,1116.136475 1.000000,1115.000000 
z"/>
<path fill="#662D91" opacity="1.000000" stroke="none" 
	d="
M1432.685181,1933.785156 
	C1440.702271,1923.375977 1448.798828,1913.026733 1456.721191,1902.545898 
	C1476.538452,1876.328369 1495.075562,1849.208862 1510.746826,1820.321655 
	C1521.334961,1800.804443 1531.160767,1780.805054 1540.095581,1760.479736 
	C1548.498047,1741.365723 1556.113770,1721.809448 1562.532104,1701.948975 
	C1568.137695,1684.603027 1572.063477,1666.662109 1575.853638,1648.797852 
	C1578.921021,1634.339966 1581.550903,1619.680054 1582.824097,1604.975586 
	C1584.850586,1581.573242 1586.370728,1558.066650 1586.596191,1534.589722 
	C1586.749390,1518.636963 1584.538696,1502.638428 1582.978027,1486.700195 
	C1581.836060,1475.037109 1580.731689,1463.294434 1578.364380,1451.844727 
	C1574.533325,1433.316040 1570.266479,1414.831787 1565.093506,1396.638794 
	C1559.796875,1378.010864 1553.832886,1359.513184 1547.004883,1341.394165 
	C1536.753662,1314.191284 1524.109497,1288.069824 1510.414673,1262.360962 
	C1476.886841,1199.419922 1435.165894,1142.364014 1388.294556,1088.898438 
	C1376.546631,1075.497681 1364.262573,1062.565430 1352.144897,1049.492065 
	C1350.260010,1047.458618 1347.944580,1045.824341 1345.321045,1043.699585 
	C1342.378052,1040.993164 1339.960571,1038.573730 1337.502930,1036.195801 
	C1331.457520,1030.346313 1325.357422,1024.552979 1319.346924,1018.667908 
	C1311.829102,1011.306885 1304.669312,1003.551697 1296.833496,996.550354 
	C1284.206543,985.268250 1271.169312,974.444885 1258.275635,963.462708 
	C1246.956909,953.822021 1235.673584,944.137390 1224.227417,934.649719 
	C1217.303711,928.910767 1210.111450,923.494812 1203.018311,917.961426 
	C1195.304565,911.943909 1187.686035,905.795227 1179.808960,899.998779 
	C1169.023560,892.062256 1158.026367,884.413879 1147.133911,876.622559 
	C1141.080811,872.292908 1135.184692,867.730347 1128.990601,863.614502 
	C1117.887085,856.236328 1106.611816,849.116272 1095.408691,841.887939 
	C1085.939575,835.778381 1076.573730,829.501038 1066.975098,823.602173 
	C1055.794189,816.730835 1044.420654,810.171753 1033.107544,803.516663 
	C1029.317871,801.287292 1025.491699,799.114685 1021.621765,797.028442 
	C1011.559814,791.604614 1001.461609,786.248230 991.383179,780.854919 
	C982.771362,776.246399 974.280518,771.394836 965.531738,767.063538 
	C953.611633,761.162231 941.563843,755.506348 929.446045,750.020935 
	C919.196899,745.381592 908.764893,741.146973 898.424133,736.709167 
	C890.974426,733.512207 883.541748,730.275818 875.862183,726.784790 
	C869.122986,723.433838 868.981628,723.386353 871.275757,716.556458 
	C878.842468,694.029602 886.145996,671.404724 894.228638,649.062805 
	C915.536499,590.163879 941.825012,533.584778 974.429077,480.032776 
	C1016.634827,410.710083 1067.586304,348.925659 1131.721680,298.639252 
	C1211.341187,236.212112 1300.807861,197.367828 1401.925659,187.102493 
	C1423.144775,184.948380 1444.513062,184.171707 1465.830933,183.138565 
	C1472.750122,182.803238 1479.728516,183.661316 1486.678711,183.996277 
	C1493.132202,184.307281 1499.626221,184.294083 1506.028931,185.047562 
	C1521.120361,186.823593 1536.245972,188.517960 1551.211792,191.094116 
	C1566.713745,193.762589 1582.035034,197.472870 1597.453735,200.637924 
	C1601.965942,201.564163 1606.540894,202.184738 1611.454956,202.969742 
	C1617.776245,206.836197 1623.907104,210.433670 1629.634277,214.587692 
	C1635.648315,218.949646 1641.208008,223.932159 1647.087402,228.487198 
	C1656.756348,235.978394 1666.748047,243.069748 1676.188965,250.834015 
	C1687.010498,259.733765 1697.406860,269.152802 1707.937500,278.403656 
	C1716.713013,286.112885 1725.651001,293.658905 1734.092529,301.721558 
	C1745.057373,312.194244 1755.732788,322.980133 1766.288086,333.868500 
	C1775.515625,343.387482 1784.441162,353.201141 1793.431274,362.948151 
	C1800.904541,371.050781 1808.478149,379.074615 1815.634277,387.452026 
	C1821.733765,394.592529 1827.254639,402.224731 1833.118164,409.570221 
	C1839.718628,417.838776 1846.676392,425.835266 1853.008789,434.301636 
	C1861.895996,446.183838 1870.438721,458.328033 1878.962891,470.476532 
	C1886.752075,481.577484 1894.682495,492.605957 1901.889160,504.081848 
	C1909.790771,516.664368 1916.978516,529.697510 1924.394531,542.581970 
	C1929.694214,551.789001 1934.963867,561.016541 1940.049927,570.342407 
	C1944.520874,578.540161 1948.816284,586.838074 1953.007202,595.183044 
	C1956.746094,602.627869 1960.406616,610.121826 1963.791870,617.731873 
	C1967.752686,626.635742 1971.340820,635.704651 1975.160278,644.672241 
	C1978.357178,652.178040 1981.998657,659.513855 1984.823242,667.154175 
	C1988.724976,677.707947 1992.170166,688.437134 1995.584106,699.163330 
	C2000.645508,715.065552 2005.807739,730.946045 2010.367920,746.994568 
	C2014.573975,761.797241 2018.091919,776.797119 2021.809570,791.735962 
	C2023.036865,796.667358 2024.134521,801.647522 2024.954712,806.660522 
	C2026.862305,818.321472 2028.637695,830.005432 2030.330200,841.699768 
	C2031.976074,853.071655 2033.485107,864.463867 2034.984619,875.856323 
	C2035.479126,879.614380 2035.716553,883.405640 2036.140259,887.173950 
	C2037.408081,898.449951 2038.907104,909.703979 2039.947510,921.000488 
	C2041.172974,934.307434 2041.984009,947.652283 2043.096802,960.970459 
	C2043.157349,961.694885 2044.339844,962.325623 2045.000000,963.000000 
	C2045.000000,1004.020935 2045.000000,1045.041870 2044.572998,1086.460205 
	C2043.764038,1088.368652 2043.168213,1089.861572 2043.038818,1091.393921 
	C2042.593628,1096.663818 2042.530273,1101.972656 2041.926514,1107.221313 
	C2040.047363,1123.560303 2038.116333,1139.895874 2035.957031,1156.199707 
	C2034.102783,1170.200806 2032.304688,1184.229980 2029.747925,1198.111450 
	C2027.314941,1211.321289 2024.099854,1224.397217 2020.924927,1237.458008 
	C2016.748535,1254.638794 2012.430664,1271.789185 2007.859497,1288.868408 
	C2005.747192,1296.760498 2002.968140,1304.479492 2000.355103,1312.231079 
	C1994.713623,1328.966187 1989.191650,1345.746338 1983.215576,1362.362427 
	C1979.416748,1372.924805 1974.989624,1383.267090 1970.662109,1393.631958 
	C1966.198242,1404.323608 1961.649292,1414.984497 1956.883667,1425.544312 
	C1952.764282,1434.671875 1948.323120,1443.655273 1943.960571,1452.671631 
	C1940.248535,1460.343872 1936.667969,1468.092041 1932.621826,1475.586670 
	C1928.437500,1483.336548 1923.661865,1490.764771 1919.329346,1498.437744 
	C1915.019409,1506.070679 1911.203735,1513.992310 1906.691284,1521.498901 
	C1900.804565,1531.291748 1894.486084,1540.827271 1888.278198,1550.424927 
	C1880.946289,1561.760498 1873.765747,1573.204224 1866.090332,1584.304199 
	C1858.788208,1594.864624 1850.920898,1605.033813 1843.323975,1615.390991 
	C1837.591064,1623.206787 1832.109131,1631.218506 1826.116821,1638.828979 
	C1820.314453,1646.198242 1813.982056,1653.148804 1807.921387,1660.316284 
	C1802.236572,1667.039429 1796.744995,1673.931885 1790.906128,1680.517578 
	C1784.816895,1687.385742 1778.394653,1693.957764 1772.154663,1700.693359 
	C1765.836670,1707.512939 1759.740967,1714.548828 1753.222412,1721.169556 
	C1746.292725,1728.207764 1738.921509,1734.808716 1731.852295,1741.712402 
	C1724.219116,1749.166626 1717.028931,1757.104736 1709.079102,1764.197144 
	C1695.708618,1776.125366 1682.086914,1787.792603 1668.204468,1799.120605 
	C1655.049927,1809.854614 1641.636963,1820.301270 1627.942383,1830.334961 
	C1616.141113,1838.981567 1603.885864,1847.025757 1591.638428,1855.041504 
	C1581.681396,1861.558228 1571.498169,1867.737183 1561.304932,1873.883057 
	C1551.672852,1879.690552 1542.022949,1885.491089 1532.145020,1890.860962 
	C1524.170410,1895.195923 1515.836304,1898.867432 1507.677246,1902.865112 
	C1498.304932,1907.457153 1489.117432,1912.472778 1479.546509,1916.601562 
	C1466.623047,1922.176636 1453.435669,1927.146240 1440.299194,1932.214355 
	C1437.914185,1933.134521 1435.230835,1933.281250 1432.685181,1933.785156 
z"/>
<path fill="#00ACD2" opacity="1.000000" stroke="none" 
	d="
M1611.087158,202.945419 
	C1606.540894,202.184738 1601.965942,201.564163 1597.453735,200.637924 
	C1582.035034,197.472870 1566.713745,193.762589 1551.211792,191.094116 
	C1536.245972,188.517960 1521.120361,186.823593 1506.028931,185.047562 
	C1499.626221,184.294083 1493.132202,184.307281 1486.678711,183.996277 
	C1479.728516,183.661316 1472.750122,182.803238 1465.830933,183.138565 
	C1444.513062,184.171707 1423.144775,184.948380 1401.925659,187.102493 
	C1300.807861,197.367828 1211.341187,236.212112 1131.721680,298.639252 
	C1067.586304,348.925659 1016.634827,410.710083 974.429077,480.032776 
	C941.825012,533.584778 915.536499,590.163879 894.228638,649.062805 
	C886.145996,671.404724 878.842468,694.029602 871.275757,716.556458 
	C868.981628,723.386353 869.122986,723.433838 875.817871,727.181152 
	C874.005676,735.005981 871.829407,742.120178 870.034119,749.329285 
	C867.800720,758.297119 865.985352,767.368347 863.800232,776.348938 
	C861.308960,786.587585 858.291443,796.707397 856.080933,807.003052 
	C853.351501,819.715820 851.245056,832.561707 848.819153,845.340454 
	C845.907898,860.675964 842.736328,875.965515 840.075134,891.343811 
	C838.293518,901.638916 837.175903,912.049988 835.811584,922.415833 
	C833.850281,937.317688 831.744751,952.204224 830.069336,967.138611 
	C829.024353,976.452881 828.788452,985.854858 827.960022,995.197144 
	C826.394226,1012.855164 824.149780,1030.469360 823.145935,1048.156250 
	C822.149780,1065.707764 822.021057,1083.327148 822.069214,1100.915161 
	C822.152588,1131.330933 822.666504,1161.745483 823.000671,1192.160522 
	C823.009827,1192.993042 822.970947,1193.831177 823.052551,1194.657104 
	C824.358826,1207.876953 825.763245,1221.087891 826.963806,1234.317261 
	C827.530212,1240.558716 827.373840,1246.876831 828.142273,1253.086304 
	C829.585938,1264.752075 831.463379,1276.364258 833.160461,1287.998657 
	C831.108948,1289.046509 829.165894,1290.595093 826.989563,1291.066284 
	C800.570007,1296.786987 774.225098,1302.951782 747.635925,1307.757324 
	C727.219543,1311.447266 706.513489,1313.626465 685.880981,1315.997437 
	C670.801514,1317.730103 655.651794,1319.435791 640.499084,1319.827393 
	C608.085327,1320.665283 575.639893,1321.240845 543.226501,1320.725098 
	C526.622864,1320.461060 509.993378,1318.098145 493.496307,1315.812500 
	C473.362061,1313.022583 453.197968,1310.049438 433.337372,1305.798218 
	C414.294891,1301.722290 395.316864,1296.833130 376.848297,1290.685669 
	C323.704834,1272.996704 273.852295,1248.543091 228.351562,1215.602295 
	C179.874359,1180.506470 138.645889,1138.245605 103.778580,1089.691040 
	C70.766891,1043.720459 44.503109,994.069580 23.093992,941.766357 
	C19.718784,933.520569 16.128454,925.362793 12.316692,916.546265 
	C13.328455,903.540833 14.627365,891.149658 16.002504,878.766968 
	C17.647345,863.955688 18.833572,849.068237 21.174061,834.365906 
	C23.986725,816.697632 27.568573,799.139526 31.264256,781.628052 
	C34.245060,767.503845 37.702251,753.471619 41.295757,739.487976 
	C44.437611,727.261902 47.989372,715.138733 51.498505,703.010193 
	C54.643688,692.139465 57.757500,681.250977 61.290512,670.503540 
	C64.778877,659.892090 68.662277,649.405273 72.580208,638.941650 
	C76.638550,628.102966 80.875458,617.329468 85.165161,606.579651 
	C89.492813,595.734863 93.656921,584.806824 98.482803,574.183350 
	C104.261597,561.462280 110.682457,549.033447 116.793930,536.462769 
	C122.341187,525.052612 127.487083,513.429504 133.472595,502.255280 
	C139.302307,491.371948 146.018478,480.965729 152.259384,470.299683 
	C157.685516,461.026184 162.644257,451.459778 168.436279,442.424622 
	C176.090469,430.484650 184.199753,418.825897 192.404587,407.252655 
	C199.876053,396.713867 207.505356,386.269196 215.486206,376.114014 
	C224.623611,364.487213 234.084167,353.105164 243.669479,341.842499 
	C251.588837,332.537262 259.898407,323.564301 268.025787,314.435852 
	C270.148224,312.051971 272.135529,309.539459 274.358978,307.255493 
	C280.436401,301.012573 286.546875,294.799194 292.761658,288.693634 
	C296.694366,284.829987 300.897888,281.243256 304.871979,277.420105 
	C310.821167,271.696899 316.429901,265.594910 322.627838,260.160919 
	C331.834503,252.088974 341.414276,244.441437 350.864258,236.648392 
	C358.199158,230.599564 365.426331,224.405258 372.979431,218.639877 
	C381.022858,212.500229 389.361511,206.744003 397.629791,200.903214 
	C406.251923,194.812469 414.941071,188.816544 423.606079,182.786575 
	C431.381897,177.375412 439.131378,171.925491 446.954498,166.583496 
	C453.778229,161.923950 460.646820,157.327087 467.572601,152.820938 
	C473.973419,148.656342 480.459503,144.621658 486.939056,140.579422 
	C494.208496,136.044434 501.401184,131.370529 508.831604,127.113724 
	C517.091980,122.381432 525.552917,117.994377 533.981018,113.560684 
	C544.322998,108.120178 554.570679,102.466866 565.134949,97.491219 
	C577.414856,91.707504 589.985718,86.540100 602.445312,81.139877 
	C611.863770,77.057762 621.196960,72.748711 630.764587,69.048698 
	C642.992676,64.319817 655.372375,59.968239 667.773193,55.705448 
	C677.857910,52.238800 688.042419,49.053551 698.232727,45.905380 
	C709.833557,42.321442 721.413269,38.628845 733.142517,35.511528 
	C746.291321,32.016914 759.545959,28.875116 772.847717,26.012987 
	C789.530579,22.423384 806.255676,18.976286 823.058350,16.010811 
	C843.615601,12.382690 864.210938,8.842302 884.906921,6.172024 
	C899.257019,4.320515 913.808472,4.046557 928.258789,2.924444 
	C929.547913,2.824341 930.754883,1.666560 932.000000,0.999998 
	C977.354248,1.000000 1022.708496,1.000000 1068.333130,1.411290 
	C1069.118774,2.195510 1069.610718,2.854772 1070.152466,2.898765 
	C1079.335693,3.644388 1088.526367,4.296233 1097.712524,5.005368 
	C1104.592529,5.536466 1111.494141,5.905580 1118.340088,6.729494 
	C1128.716064,7.978265 1139.055420,9.536719 1149.404419,11.004996 
	C1162.322266,12.837731 1175.258911,14.559170 1188.138916,16.630009 
	C1195.190430,17.763741 1202.122314,19.621319 1209.143555,20.968311 
	C1219.043823,22.867676 1229.054077,24.257238 1238.875488,26.488724 
	C1249.760742,28.961943 1260.478149,32.169945 1271.283813,34.999752 
	C1285.680542,38.770004 1300.155640,42.258698 1314.475952,46.297508 
	C1324.888794,49.234261 1335.187988,52.633064 1345.389893,56.244045 
	C1359.817261,61.350681 1374.179932,66.659286 1388.435303,72.226837 
	C1400.439453,76.915092 1412.261475,82.071297 1424.142578,87.071495 
	C1428.579468,88.938751 1433.020508,90.817207 1437.342651,92.929871 
	C1442.993164,95.691734 1448.483154,98.780563 1454.121216,101.569016 
	C1465.108032,107.002762 1476.308228,112.026871 1487.125732,117.774673 
	C1498.944702,124.054565 1510.606689,130.674637 1522.011230,137.677139 
	C1533.119141,144.497574 1544.000977,151.726227 1554.644409,159.253357 
	C1567.672852,168.467331 1580.453735,178.042328 1593.135010,187.731857 
	C1599.359741,192.488037 1605.117920,197.854919 1611.087158,202.945419 
z"/>
<path fill="#000000" opacity="1.000000" stroke="none" 
	d="
M1432.420166,1934.026489 
	C1435.230835,1933.281250 1437.914185,1933.134521 1440.299194,1932.214355 
	C1453.435669,1927.146240 1466.623047,1922.176636 1479.546509,1916.601562 
	C1489.117432,1912.472778 1498.304932,1907.457153 1507.677246,1902.865112 
	C1515.836304,1898.867432 1524.170410,1895.195923 1532.145020,1890.860962 
	C1542.022949,1885.491089 1551.672852,1879.690552 1561.304932,1873.883057 
	C1571.498169,1867.737183 1581.681396,1861.558228 1591.638428,1855.041504 
	C1603.885864,1847.025757 1616.141113,1838.981567 1627.942383,1830.334961 
	C1641.636963,1820.301270 1655.049927,1809.854614 1668.204468,1799.120605 
	C1682.086914,1787.792603 1695.708618,1776.125366 1709.079102,1764.197144 
	C1717.028931,1757.104736 1724.219116,1749.166626 1731.852295,1741.712402 
	C1738.921509,1734.808716 1746.292725,1728.207764 1753.222412,1721.169556 
	C1759.740967,1714.548828 1765.836670,1707.512939 1772.154663,1700.693359 
	C1778.394653,1693.957764 1784.816895,1687.385742 1790.906128,1680.517578 
	C1796.744995,1673.931885 1802.236572,1667.039429 1807.921387,1660.316284 
	C1813.982056,1653.148804 1820.314453,1646.198242 1826.116821,1638.828979 
	C1832.109131,1631.218506 1837.591064,1623.206787 1843.323975,1615.390991 
	C1850.920898,1605.033813 1858.788208,1594.864624 1866.090332,1584.304199 
	C1873.765747,1573.204224 1880.946289,1561.760498 1888.278198,1550.424927 
	C1894.486084,1540.827271 1900.804565,1531.291748 1906.691284,1521.498901 
	C1911.203735,1513.992310 1915.019409,1506.070679 1919.329346,1498.437744 
	C1923.661865,1490.764771 1928.437500,1483.336548 1932.621826,1475.586670 
	C1936.667969,1468.092041 1940.248535,1460.343872 1943.960571,1452.671631 
	C1948.323120,1443.655273 1952.764282,1434.671875 1956.883667,1425.544312 
	C1961.649292,1414.984497 1966.198242,1404.323608 1970.662109,1393.631958 
	C1974.989624,1383.267090 1979.416748,1372.924805 1983.215576,1362.362427 
	C1989.191650,1345.746338 1994.713623,1328.966187 2000.355103,1312.231079 
	C2002.968140,1304.479492 2005.747192,1296.760498 2007.859497,1288.868408 
	C2012.430664,1271.789185 2016.748535,1254.638794 2020.924927,1237.458008 
	C2024.099854,1224.397217 2027.314941,1211.321289 2029.747925,1198.111450 
	C2032.304688,1184.229980 2034.102783,1170.200806 2035.957031,1156.199707 
	C2038.116333,1139.895874 2040.047363,1123.560303 2041.926514,1107.221313 
	C2042.530273,1101.972656 2042.593628,1096.663818 2043.038818,1091.393921 
	C2043.168213,1089.861572 2043.764038,1088.368652 2044.572998,1086.928833 
	C2045.000000,1407.596191 2045.000000,1728.192383 2045.000000,2049.000000 
	C1702.979126,2049.000000 1360.958130,2049.000000 1018.468628,2049.000000 
	C1018.802490,2048.333984 1019.563843,2047.146362 1020.413513,2047.079346 
	C1034.492065,2045.969116 1048.617798,2045.346313 1062.656616,2043.882324 
	C1072.802856,2042.824463 1082.813599,2040.528931 1092.926880,2039.078125 
	C1105.805542,2037.230469 1118.750854,2035.841919 1131.618896,2033.928345 
	C1137.830566,2033.004639 1143.921997,2031.290405 1150.083374,2030.008179 
	C1163.033447,2027.313354 1176.043579,2024.884644 1188.933838,2021.931030 
	C1198.956665,2019.634399 1208.845581,2016.746582 1218.775757,2014.053955 
	C1234.719971,2009.730347 1250.727051,2005.614136 1266.558472,2000.908325 
	C1278.363037,1997.399536 1289.959961,1993.178955 1301.598633,1989.129150 
	C1315.920410,1984.145752 1330.257080,1979.191650 1344.461792,1973.888550 
	C1358.226929,1968.749512 1371.900757,1963.348267 1385.477783,1957.731201 
	C1391.503296,1955.238403 1397.138672,1951.819092 1403.045776,1949.019775 
	C1411.273193,1945.121216 1419.617920,1941.469971 1427.843750,1937.567749 
	C1429.442627,1936.809082 1430.726074,1935.385132 1432.420166,1934.026489 
z"/>
<path fill="#000000" opacity="1.000000" stroke="none" 
	d="
M1611.454956,202.969742 
	C1605.117920,197.854919 1599.359741,192.488037 1593.135010,187.731857 
	C1580.453735,178.042328 1567.672852,168.467331 1554.644409,159.253357 
	C1544.000977,151.726227 1533.119141,144.497574 1522.011230,137.677139 
	C1510.606689,130.674637 1498.944702,124.054565 1487.125732,117.774673 
	C1476.308228,112.026871 1465.108032,107.002762 1454.121216,101.569016 
	C1448.483154,98.780563 1442.993164,95.691734 1437.342651,92.929871 
	C1433.020508,90.817207 1428.579468,88.938751 1424.142578,87.071495 
	C1412.261475,82.071297 1400.439453,76.915092 1388.435303,72.226837 
	C1374.179932,66.659286 1359.817261,61.350681 1345.389893,56.244045 
	C1335.187988,52.633064 1324.888794,49.234261 1314.475952,46.297508 
	C1300.155640,42.258698 1285.680542,38.770004 1271.283813,34.999752 
	C1260.478149,32.169945 1249.760742,28.961943 1238.875488,26.488724 
	C1229.054077,24.257238 1219.043823,22.867676 1209.143555,20.968311 
	C1202.122314,19.621319 1195.190430,17.763741 1188.138916,16.630009 
	C1175.258911,14.559170 1162.322266,12.837731 1149.404419,11.004996 
	C1139.055420,9.536719 1128.716064,7.978265 1118.340088,6.729494 
	C1111.494141,5.905580 1104.592529,5.536466 1097.712524,5.005368 
	C1088.526367,4.296233 1079.335693,3.644388 1070.152466,2.898765 
	C1069.610718,2.854772 1069.118774,2.195510 1068.801758,1.411290 
	C1394.259888,1.000000 1719.519897,1.000000 2045.000000,1.000000 
	C2045.000000,321.354187 2045.000000,641.708435 2045.000000,962.531311 
	C2044.339844,962.325623 2043.157349,961.694885 2043.096802,960.970459 
	C2041.984009,947.652283 2041.172974,934.307434 2039.947510,921.000488 
	C2038.907104,909.703979 2037.408081,898.449951 2036.140259,887.173950 
	C2035.716553,883.405640 2035.479126,879.614380 2034.984619,875.856323 
	C2033.485107,864.463867 2031.976074,853.071655 2030.330200,841.699768 
	C2028.637695,830.005432 2026.862305,818.321472 2024.954712,806.660522 
	C2024.134521,801.647522 2023.036865,796.667358 2021.809570,791.735962 
	C2018.091919,776.797119 2014.573975,761.797241 2010.367920,746.994568 
	C2005.807739,730.946045 2000.645508,715.065552 1995.584106,699.163330 
	C1992.170166,688.437134 1988.724976,677.707947 1984.823242,667.154175 
	C1981.998657,659.513855 1978.357178,652.178040 1975.160278,644.672241 
	C1971.340820,635.704651 1967.752686,626.635742 1963.791870,617.731873 
	C1960.406616,610.121826 1956.746094,602.627869 1953.007202,595.183044 
	C1948.816284,586.838074 1944.520874,578.540161 1940.049927,570.342407 
	C1934.963867,561.016541 1929.694214,551.789001 1924.394531,542.581970 
	C1916.978516,529.697510 1909.790771,516.664368 1901.889160,504.081848 
	C1894.682495,492.605957 1886.752075,481.577484 1878.962891,470.476532 
	C1870.438721,458.328033 1861.895996,446.183838 1853.008789,434.301636 
	C1846.676392,425.835266 1839.718628,417.838776 1833.118164,409.570221 
	C1827.254639,402.224731 1821.733765,394.592529 1815.634277,387.452026 
	C1808.478149,379.074615 1800.904541,371.050781 1793.431274,362.948151 
	C1784.441162,353.201141 1775.515625,343.387482 1766.288086,333.868500 
	C1755.732788,322.980133 1745.057373,312.194244 1734.092529,301.721558 
	C1725.651001,293.658905 1716.713013,286.112885 1707.937500,278.403656 
	C1697.406860,269.152802 1687.010498,259.733765 1676.188965,250.834015 
	C1666.748047,243.069748 1656.756348,235.978394 1647.087402,228.487198 
	C1641.208008,223.932159 1635.648315,218.949646 1629.634277,214.587692 
	C1623.907104,210.433670 1617.776245,206.836197 1611.454956,202.969742 
z"/>
<path fill="#000000" opacity="1.000000" stroke="none" 
	d="
M931.531372,0.999998 
	C930.754883,1.666560 929.547913,2.824341 928.258789,2.924444 
	C913.808472,4.046557 899.257019,4.320515 884.906921,6.172024 
	C864.210938,8.842302 843.615601,12.382690 823.058350,16.010811 
	C806.255676,18.976286 789.530579,22.423384 772.847717,26.012987 
	C759.545959,28.875116 746.291321,32.016914 733.142517,35.511528 
	C721.413269,38.628845 709.833557,42.321442 698.232727,45.905380 
	C688.042419,49.053551 677.857910,52.238800 667.773193,55.705448 
	C655.372375,59.968239 642.992676,64.319817 630.764587,69.048698 
	C621.196960,72.748711 611.863770,77.057762 602.445312,81.139877 
	C589.985718,86.540100 577.414856,91.707504 565.134949,97.491219 
	C554.570679,102.466866 544.322998,108.120178 533.981018,113.560684 
	C525.552917,117.994377 517.091980,122.381432 508.831604,127.113724 
	C501.401184,131.370529 494.208496,136.044434 486.939056,140.579422 
	C480.459503,144.621658 473.973419,148.656342 467.572601,152.820938 
	C460.646820,157.327087 453.778229,161.923950 446.954498,166.583496 
	C439.131378,171.925491 431.381897,177.375412 423.606079,182.786575 
	C414.941071,188.816544 406.251923,194.812469 397.629791,200.903214 
	C389.361511,206.744003 381.022858,212.500229 372.979431,218.639877 
	C365.426331,224.405258 358.199158,230.599564 350.864258,236.648392 
	C341.414276,244.441437 331.834503,252.088974 322.627838,260.160919 
	C316.429901,265.594910 310.821167,271.696899 304.871979,277.420105 
	C300.897888,281.243256 296.694366,284.829987 292.761658,288.693634 
	C286.546875,294.799194 280.436401,301.012573 274.358978,307.255493 
	C272.135529,309.539459 270.148224,312.051971 268.025787,314.435852 
	C259.898407,323.564301 251.588837,332.537262 243.669479,341.842499 
	C234.084167,353.105164 224.623611,364.487213 215.486206,376.114014 
	C207.505356,386.269196 199.876053,396.713867 192.404587,407.252655 
	C184.199753,418.825897 176.090469,430.484650 168.436279,442.424622 
	C162.644257,451.459778 157.685516,461.026184 152.259384,470.299683 
	C146.018478,480.965729 139.302307,491.371948 133.472595,502.255280 
	C127.487083,513.429504 122.341187,525.052612 116.793930,536.462769 
	C110.682457,549.033447 104.261597,561.462280 98.482803,574.183350 
	C93.656921,584.806824 89.492813,595.734863 85.165161,606.579651 
	C80.875458,617.329468 76.638550,628.102966 72.580208,638.941650 
	C68.662277,649.405273 64.778877,659.892090 61.290512,670.503540 
	C57.757500,681.250977 54.643688,692.139465 51.498505,703.010193 
	C47.989372,715.138733 44.437611,727.261902 41.295757,739.487976 
	C37.702251,753.471619 34.245060,767.503845 31.264256,781.628052 
	C27.568573,799.139526 23.986725,816.697632 21.174061,834.365906 
	C18.833572,849.068237 17.647345,863.955688 16.002504,878.766968 
	C14.627365,891.149658 13.328455,903.540833 12.001171,916.373108 
	C11.004346,922.474792 9.835593,928.107971 9.032349,933.792908 
	C6.944747,948.567810 5.011106,963.364502 3.031522,978.154602 
	C2.563707,981.649658 2.156888,985.153015 1.361007,988.326294 
	C1.000000,659.075012 1.000000,330.150055 1.000000,1.000000 
	C311.020844,1.000000 621.041748,1.000000 931.531372,0.999998 
z"/>
<path fill="#000000" opacity="1.000000" stroke="none" 
	d="
M1.000000,1115.468628 
	C1.666676,1116.136475 2.790049,1117.218872 2.932298,1118.417603 
	C5.525208,1140.268188 6.127361,1162.320801 10.799383,1183.973511 
	C13.397104,1196.012695 14.168128,1208.436523 16.065596,1220.640015 
	C17.031643,1226.853149 18.638330,1232.968506 20.006826,1239.116699 
	C22.981180,1252.479004 25.885107,1265.858154 29.015173,1279.184082 
	C31.514294,1289.823730 34.148895,1300.437500 37.012505,1310.984131 
	C39.657661,1320.726318 42.571785,1330.399902 45.579361,1340.037598 
	C48.683571,1349.985229 52.023438,1359.859497 55.296638,1369.753906 
	C58.916992,1380.697510 62.448219,1391.673462 66.272202,1402.546021 
	C68.503647,1408.890381 71.243057,1415.055786 73.734093,1421.309570 
	C76.514656,1428.290283 79.225159,1435.299316 82.056892,1442.259033 
	C83.981735,1446.989746 85.983528,1451.692871 88.089874,1456.345337 
	C92.913368,1466.999512 97.750885,1477.648560 102.716507,1488.236938 
	C107.540482,1498.523193 112.257698,1508.874146 117.515137,1518.938843 
	C124.776443,1532.839844 132.280426,1546.625610 140.100403,1560.219116 
	C145.648087,1569.862793 151.916016,1579.090698 157.815002,1588.533936 
	C164.286163,1598.893188 170.707062,1609.283813 177.141495,1619.665894 
	C180.849091,1625.648315 184.171234,1631.911133 188.317215,1637.571289 
	C196.283127,1648.446533 204.778900,1658.931763 212.920120,1669.680908 
	C217.018097,1675.091797 220.631805,1680.873291 224.799957,1686.225952 
	C231.649475,1695.022705 238.625015,1703.730957 245.819382,1712.246704 
	C253.310089,1721.113403 261.120483,1729.710205 268.796295,1738.420410 
	C271.108978,1741.044678 273.346832,1743.742798 275.776703,1746.254517 
	C287.784088,1758.666016 299.617828,1771.258179 311.963226,1783.325806 
	C320.607056,1791.775269 329.933899,1799.531006 339.030823,1807.510742 
	C349.025513,1816.278198 358.957764,1825.126587 369.191925,1833.608276 
	C379.263306,1841.955322 389.533905,1850.079346 399.980530,1857.951782 
	C412.802155,1867.613770 425.737122,1877.143921 438.931030,1886.286865 
	C447.470703,1892.204468 456.588165,1897.284424 465.397278,1902.818359 
	C472.771362,1907.450684 479.984711,1912.344482 487.434357,1916.849365 
	C493.902954,1920.760864 500.571899,1924.346558 507.208557,1927.973145 
	C516.054260,1932.807129 524.838562,1937.774780 533.861328,1942.258179 
	C544.878357,1947.732544 556.090515,1952.818237 567.264832,1957.971069 
	C576.852844,1962.392090 586.511536,1966.659668 596.129517,1971.015991 
	C606.211609,1975.582520 616.211853,1980.338013 626.377930,1984.708374 
	C637.040710,1989.292358 647.742065,1993.834717 658.639771,1997.810913 
	C669.884033,2001.913574 681.393066,2005.288086 692.770813,2009.028198 
	C701.145142,2011.781250 709.413025,2014.892700 717.876160,2017.331787 
	C727.754150,2020.178345 737.776489,2022.534058 747.765930,2024.981567 
	C759.965332,2027.970459 772.118958,2031.224243 784.434509,2033.638184 
	C796.053528,2035.915283 807.865173,2037.198364 819.576782,2039.017578 
	C829.195251,2040.511719 838.763184,2042.360352 848.407166,2043.650513 
	C854.588318,2044.477295 860.871094,2044.522949 867.100891,2045.013062 
	C875.110718,2045.643188 883.115051,2046.346924 891.114197,2047.098877 
	C891.659058,2047.150146 892.141113,2047.869263 892.326172,2048.638916 
	C595.071167,2049.000000 298.142365,2049.000000 1.000000,2049.000000 
	C1.000000,1737.979126 1.000000,1426.958130 1.000000,1115.468628 
z"/>
<path fill="#000000" opacity="1.000000" stroke="none" 
	d="
M833.573486,1287.999023 
	C831.463379,1276.364258 829.585938,1264.752075 828.142273,1253.086304 
	C827.373840,1246.876831 827.530212,1240.558716 826.963806,1234.317261 
	C825.763245,1221.087891 824.358826,1207.876953 823.052551,1194.657104 
	C822.970947,1193.831177 823.009827,1192.993042 823.000671,1192.160522 
	C822.666504,1161.745483 822.152588,1131.330933 822.069214,1100.915161 
	C822.021057,1083.327148 822.149780,1065.707764 823.145935,1048.156250 
	C824.149780,1030.469360 826.394226,1012.855164 827.960022,995.197144 
	C828.788452,985.854858 829.024353,976.452881 830.069336,967.138611 
	C831.744751,952.204224 833.850281,937.317688 835.811584,922.415833 
	C837.175903,912.049988 838.293518,901.638916 840.075134,891.343811 
	C842.736328,875.965515 845.907898,860.675964 848.819153,845.340454 
	C851.245056,832.561707 853.351501,819.715820 856.080933,807.003052 
	C858.291443,796.707397 861.308960,786.587585 863.800232,776.348938 
	C865.985352,767.368347 867.800720,758.297119 870.034119,749.329285 
	C871.829407,742.120178 874.005676,735.005981 876.057129,727.453369 
	C883.541748,730.275818 890.974426,733.512207 898.424133,736.709167 
	C908.764893,741.146973 919.196899,745.381592 929.446045,750.020935 
	C941.563843,755.506348 953.611633,761.162231 965.531738,767.063538 
	C974.280518,771.394836 982.771362,776.246399 991.383179,780.854919 
	C1001.461609,786.248230 1011.559814,791.604614 1021.621765,797.028442 
	C1025.491699,799.114685 1029.317871,801.287292 1033.107544,803.516663 
	C1044.420654,810.171753 1055.794189,816.730835 1066.975098,823.602173 
	C1076.573730,829.501038 1085.939575,835.778381 1095.408691,841.887939 
	C1106.611816,849.116272 1117.887085,856.236328 1128.990601,863.614502 
	C1135.184692,867.730347 1141.080811,872.292908 1147.133911,876.622559 
	C1158.026367,884.413879 1169.023560,892.062256 1179.808960,899.998779 
	C1187.686035,905.795227 1195.304565,911.943909 1203.018311,917.961426 
	C1210.111450,923.494812 1217.303711,928.910767 1224.227417,934.649719 
	C1235.673584,944.137390 1246.956909,953.822021 1258.275635,963.462708 
	C1271.169312,974.444885 1284.206543,985.268250 1296.833496,996.550354 
	C1304.669312,1003.551697 1311.829102,1011.306885 1319.346924,1018.667908 
	C1325.357422,1024.552979 1331.457520,1030.346313 1337.502930,1036.195801 
	C1339.960571,1038.573730 1342.378052,1040.993164 1344.974609,1043.699219 
	C1341.173218,1047.087036 1337.249634,1050.221191 1333.236084,1053.235474 
	C1330.117065,1055.577881 1326.837646,1057.706299 1323.713623,1060.042236 
	C1315.208862,1066.401489 1306.881592,1073.007202 1298.223633,1079.148315 
	C1292.629517,1083.116211 1286.535156,1086.372681 1280.745972,1090.074463 
	C1277.205933,1092.338013 1273.884399,1094.942627 1270.350952,1097.217163 
	C1260.105957,1103.811890 1249.878052,1110.438354 1239.503418,1116.824829 
	C1228.046753,1123.877441 1216.564575,1130.906738 1204.857666,1137.529663 
	C1190.458740,1145.675293 1175.791260,1153.345093 1161.288818,1161.309448 
	C1152.578613,1166.092773 1144.021973,1171.157837 1135.274414,1175.869873 
	C1131.497192,1177.904663 1127.350952,1179.241333 1123.476807,1181.111572 
	C1105.900513,1189.596436 1088.468018,1198.388794 1070.765137,1206.598633 
	C1061.513428,1210.889282 1051.764404,1214.095459 1042.322021,1217.989990 
	C1032.116699,1222.198975 1022.086609,1226.839111 1011.835876,1230.929565 
	C998.188782,1236.375488 984.480896,1241.691162 970.651123,1246.650269 
	C959.209351,1250.753296 947.527222,1254.181519 936.000122,1258.053101 
	C927.487610,1260.912231 919.121582,1264.218994 910.567200,1266.938721 
	C899.261902,1270.533203 887.869995,1273.868530 876.453430,1277.096069 
	C863.165649,1280.852539 849.813660,1284.382690 836.477905,1287.967773 
	C835.700806,1288.176758 834.819397,1287.997803 833.573486,1287.999023 
z"/>
</svg>