<?xml version="1.0" encoding="UTF-8"?>
<svg version="1.1" viewBox="0 0 800 800" width="1280" height="1280" xmlns="http://www.w3.org/2000/svg">
<path transform="translate(0)" d="m0 0h800v800h-800z" fill="#FEFEFD"/>
<path transform="translate(699,36)" d="m0 0h9l13 2 9 5 10 9 11 14 8 13 1 3v631l-8 16-7 12-9 10-6 4-15 5-24 4-13-12-52-52-7-6v-2l-4-2-61-61-6-5-6-7-8-7-69-69-7-6-5-6-8-7-41-41-13-8-6-3h-6l-2 4-11 11-7 8-10 11-9 11-11 12 1 4 39 39v2l4 2 7 8 41 41 7 8 77 77v2l4 2v2l4 2v2l3 1 7 8 28 28-2 2-80 1h-31l-5-3-27-27-8-7-32-32-7-6-34-34-8-7-33-33-8-7-5-5-5 1-11 9-14 12-12 11-11 9-10 9-1 3-2 66-2 46-2 1h-127l-13-9-10-9-9-10-5-13-3-17-1-7 10-9 297-297 6-7 6-5 6-7 6-5 6-7 6-5 6-7 7-6 5-6 7-6 5-6 7-6 5-6 6-5 2-3h2l2-4 263-263z" fill="#21AEE5"/>
<path transform="translate(484,34)" d="m0 0 77 1 53 1-4 6-3 3h-2l-2 4-159 159-7 6-5 6-7 6-5 6-8 7-15 15-5 6-7 6-68 68-5 6-8 7-268 268h-1l-1-91v-42l446-446z" fill="#E0842B"/>
<path transform="translate(86,34)" d="m0 0h34l98 1 1 1 1 120-2 6-74 74-7 6-86 86-6 5-10 10h-2v-68l2-100 1-87 4-20 4-7 9-9 11-9 14-7z" fill="#E0842B"/>
</svg>
