<svg version="1.1" id="Layer_1" xmlns="http://www.w3.org/2000/svg" xmlns:xlink="http://www.w3.org/1999/xlink" x="0px" y="0px"
	 width="100%" viewBox="0 0 1400 1463" enable-background="new 0 0 1400 1463" xml:space="preserve">
<path fill="#00B400" opacity="1.000000" stroke="none" 
	d="
M1391.000000,1464.000000 
	C931.300598,1464.000000 471.601196,1464.000000 11.335797,1463.670654 
	C3.892344,1460.918579 3.306437,1455.295776 3.306810,1449.155640 
	C3.335809,971.833252 3.340044,494.510864 3.254314,17.188467 
	C3.253285,11.457512 4.569051,6.760444 9.521753,3.185078 
	C10.977585,3.014319 12.027911,2.825516 13.532576,2.655765 
	C434.960022,2.677545 855.933167,2.680307 1276.906250,2.681042 
	C1277.905884,2.681044 1278.905518,2.651266 1280.189941,2.773170 
	C1280.682861,2.877533 1280.891113,2.844121 1281.439209,2.918159 
	C1289.819214,6.954019 1290.976074,12.672077 1285.307983,20.396029 
	C1217.872070,112.290932 1150.436401,204.186035 1083.003662,296.083282 
	C1031.225464,366.646332 979.456787,437.216217 927.670166,507.773132 
	C920.383484,517.700806 911.419250,518.134155 903.198792,509.003296 
	C889.821899,494.144928 876.461548,479.271637 863.099426,464.399994 
	C834.481812,432.549530 805.914612,400.653595 777.222534,368.870422 
	C768.839722,359.584564 760.243347,360.045258 752.699280,369.888275 
	C728.702271,401.198181 704.747986,432.540771 680.774231,463.868530 
	C674.276001,472.360138 674.526855,478.043457 682.039001,485.792450 
	C725.421814,530.543457 768.832642,575.267334 812.245300,619.989380 
	C844.398560,653.112549 876.558716,686.229004 908.739624,719.325134 
	C916.103882,726.898865 924.044434,726.769531 931.150391,719.038391 
	C934.193970,715.727051 937.156921,712.341553 940.148865,708.982971 
	C1001.877319,639.692993 1063.590942,570.389832 1125.335815,501.114471 
	C1192.178955,426.119171 1259.052002,351.150604 1325.909546,276.168060 
	C1344.203613,255.650696 1362.504395,235.139160 1380.762817,214.590042 
	C1383.959106,210.992859 1387.784058,209.342972 1392.335693,211.103104 
	C1397.076172,212.936295 1398.943237,216.843582 1398.731445,221.859573 
	C1398.611938,224.688202 1398.665405,227.524765 1398.665405,230.357758 
	C1398.663330,636.522888 1398.654297,1042.687988 1398.744751,1448.853149 
	C1398.746216,1455.523315 1397.287476,1460.839722 1391.000000,1464.000000 
M291.548187,832.184692 
	C299.604950,813.991943 314.759583,804.522156 332.887543,798.965393 
	C359.352173,790.853088 386.398132,792.396912 413.115326,796.309998 
	C458.686157,802.984436 499.855103,820.703430 536.170898,849.298218 
	C544.793823,856.087891 551.874817,855.333618 558.454468,846.672974 
	C576.675720,822.688721 594.807312,798.636108 612.909607,774.561829 
	C617.950256,767.858276 617.084229,760.023132 610.183899,755.374817 
	C592.697510,743.594971 575.541443,731.144531 557.180542,720.881470 
	C521.299072,700.825256 482.430450,689.172668 441.663757,683.914307 
	C417.292633,680.770752 392.871552,680.744324 368.345123,681.883545 
	C335.471741,683.410522 303.533417,689.330200 273.365936,702.402405 
	C208.414276,730.547302 166.154388,776.994568 158.623764,849.836060 
	C156.031281,874.912415 159.003632,899.679504 167.661209,923.545044 
	C181.185928,960.827393 207.687912,986.453918 241.573944,1005.312927 
	C267.259979,1019.608276 294.743073,1029.481323 323.045898,1036.970093 
	C359.470215,1046.607666 396.133301,1055.345215 432.536560,1065.058838 
	C451.819427,1070.204346 470.660217,1076.846924 486.680420,1089.461670 
	C505.039978,1103.918457 510.087524,1126.755249 499.322876,1147.572876 
	C489.799438,1165.990112 473.673126,1176.368042 454.763458,1182.940796 
	C429.416321,1191.751221 403.235962,1192.352539 376.823975,1190.207031 
	C336.917999,1186.965454 299.813843,1174.950562 265.308594,1154.738892 
	C249.166275,1145.283447 234.373901,1134.034912 220.437057,1121.571655 
	C213.157715,1115.062012 205.075226,1115.642090 199.671890,1123.113403 
	C181.346069,1148.452271 163.185455,1173.911621 145.091141,1199.416748 
	C140.908264,1205.312744 142.121597,1212.622437 147.545197,1217.394653 
	C168.113358,1235.492554 190.508179,1250.951660 214.709198,1263.787354 
	C256.211029,1285.798828 300.474274,1298.859985 347.190796,1302.662476 
	C383.455750,1305.614380 419.785461,1304.414673 455.808868,1298.818604 
	C487.212769,1293.940430 517.316528,1284.805420 544.975281,1268.759644 
	C580.739136,1248.011841 607.044189,1218.939087 621.600281,1179.915894 
	C632.672119,1150.233521 635.703735,1119.555786 632.240723,1088.118774 
	C629.032104,1058.990234 619.082397,1032.723877 600.345398,1009.923096 
	C579.389465,984.422058 552.162903,967.823608 522.350891,955.089233 
	C483.256226,938.389709 441.992096,928.814941 400.810944,919.030518 
	C374.491302,912.777222 348.072998,906.772278 323.130432,895.934326 
	C311.284698,890.787231 300.061798,884.400818 292.928009,873.134277 
	C284.741302,860.204956 286.128387,846.540649 291.548187,832.184692 
M693.080017,1055.541138 
	C692.117920,1087.479126 694.529785,1118.862793 704.808594,1149.536987 
	C735.315369,1240.575317 821.955383,1303.546753 917.854675,1303.966797 
	C952.756348,1304.119507 987.327759,1302.069092 1020.994568,1291.849121 
	C1051.917603,1282.462158 1080.686279,1268.721313 1106.942505,1249.819702 
	C1113.468262,1245.121826 1115.104126,1238.845459 1110.875732,1232.553101 
	C1098.263672,1213.784668 1085.548096,1195.083252 1072.643799,1176.515015 
	C1068.204102,1170.126831 1061.572021,1169.315674 1055.180786,1173.777588 
	C1031.560303,1190.267944 1005.672546,1201.450195 977.315979,1206.593994 
	C955.240173,1210.598511 932.803406,1212.981567 910.852478,1207.494263 
	C861.850220,1195.244507 830.810608,1164.331177 818.762268,1114.948364 
	C816.838257,1107.062256 817.585815,1106.261353 825.657654,1106.261230 
	C899.144470,1106.260010 972.631226,1106.260254 1046.118042,1106.260132 
	C1075.612671,1106.260132 1105.107422,1106.265747 1134.602051,1106.256958 
	C1146.081055,1106.253418 1150.069214,1102.287354 1149.804688,1090.980957 
	C1149.613647,1082.819458 1149.293335,1074.660278 1148.966675,1066.502563 
	C1147.337524,1025.835327 1138.996338,986.808228 1120.500610,950.269470 
	C1101.035767,911.815857 1073.130493,881.113647 1035.220093,860.439453 
	C985.294678,833.212891 931.723938,827.301636 876.511414,837.850159 
	C827.912048,847.135193 786.498779,870.490356 753.079712,907.255737 
	C715.140808,948.993469 695.283630,998.207397 693.080017,1055.541138 
z"/>
<path fill="#FFFFFF" opacity="1.000000" stroke="none" 
	d="
M1391.486572,1464.000000 
	C1397.287476,1460.839722 1398.746216,1455.523315 1398.744751,1448.853149 
	C1398.654297,1042.687988 1398.663330,636.522888 1398.665405,230.357758 
	C1398.665405,227.524765 1398.611938,224.688202 1398.731445,221.859573 
	C1398.943237,216.843582 1397.076172,212.936295 1392.335693,211.103104 
	C1387.784058,209.342972 1383.959106,210.992859 1380.762817,214.590042 
	C1362.504395,235.139160 1344.203613,255.650696 1325.909546,276.168060 
	C1259.052002,351.150604 1192.178955,426.119171 1125.335815,501.114471 
	C1063.590942,570.389832 1001.877319,639.692993 940.148865,708.982971 
	C937.156921,712.341553 934.193970,715.727051 931.150391,719.038391 
	C924.044434,726.769531 916.103882,726.898865 908.739624,719.325134 
	C876.558716,686.229004 844.398560,653.112549 812.245300,619.989380 
	C768.832642,575.267334 725.421814,530.543457 682.039001,485.792450 
	C674.526855,478.043457 674.276001,472.360138 680.774231,463.868530 
	C704.747986,432.540771 728.702271,401.198181 752.699280,369.888275 
	C760.243347,360.045258 768.839722,359.584564 777.222534,368.870422 
	C805.914612,400.653595 834.481812,432.549530 863.099426,464.399994 
	C876.461548,479.271637 889.821899,494.144928 903.198792,509.003296 
	C911.419250,518.134155 920.383484,517.700806 927.670166,507.773132 
	C979.456787,437.216217 1031.225464,366.646332 1083.003662,296.083282 
	C1150.436401,204.186035 1217.872070,112.290932 1285.307983,20.396029 
	C1290.976074,12.672077 1289.819214,6.954019 1281.463867,2.706040 
	C1281.148682,2.386474 1281.195190,1.961933 1281.386963,1.856318 
	C1281.810425,1.551734 1281.950806,1.301500 1282.000000,1.000000 
	C1321.020874,1.000000 1360.041870,1.000000 1399.678467,1.185699 
	C1400.499512,1.614686 1400.734741,1.824220 1401.000000,2.000000 
	C1401.000000,489.333344 1401.000000,976.666687 1401.000000,1464.000000 
	C1397.971313,1464.000000 1394.972168,1464.000000 1391.486572,1464.000000 
z"/>
<path fill="#FDFDFC" opacity="1.000000" stroke="none" 
	d="
M9.116250,3.167034 
	C4.569051,6.760444 3.253285,11.457512 3.254314,17.188467 
	C3.340044,494.510864 3.335809,971.833252 3.306810,1449.155640 
	C3.306437,1455.295776 3.892344,1460.918579 10.884892,1463.670654 
	C7.667657,1464.000000 4.335314,1464.000000 1.001486,1464.000000 
	C1.000000,976.979126 1.000000,489.958221 1.185372,2.321591 
	C1.600266,1.488202 1.810018,1.252913 2.000000,1.000000 
	C4.041667,1.000000 6.083333,1.000000 8.609718,1.359440 
	C9.101708,2.201598 9.108979,2.684316 9.116250,3.167034 
z"/>
<path fill="#FAE7FE" opacity="1.000000" stroke="none" 
	d="
M1281.538818,1.000000 
	C1281.950806,1.301500 1281.810425,1.551734 1281.137817,1.910968 
	C1280.433105,2.259298 1280.169189,2.447362 1279.905151,2.635412 
	C1278.905518,2.651266 1277.905884,2.681044 1276.906250,2.681042 
	C855.933167,2.680307 434.960022,2.677545 13.337790,2.454342 
	C12.125777,1.822579 11.562889,1.411290 11.000000,1.000000 
	C434.359161,1.000000 857.718323,1.000000 1281.538818,1.000000 
z"/>
<path fill="#A8D3A6" opacity="1.000000" stroke="none" 
	d="
M10.666667,1.000000 
	C11.562889,1.411290 12.125777,1.822579 12.883452,2.435291 
	C12.027911,2.825516 10.977585,3.014319 9.521753,3.185078 
	C9.108979,2.684316 9.101708,2.201598 9.047218,1.359440 
	C9.444445,1.000000 9.888889,1.000000 10.666667,1.000000 
z"/>
<path fill="#A8D3A6" opacity="1.000000" stroke="none" 
	d="
M1.500000,1.000000 
	C1.810018,1.252913 1.600266,1.488202 1.185372,1.852934 
	C1.000000,1.666667 1.000000,1.333333 1.500000,1.000000 
z"/>
<path fill="#A8D3A6" opacity="1.000000" stroke="none" 
	d="
M1401.000000,1.500000 
	C1400.734741,1.824220 1400.499512,1.614686 1400.147217,1.185699 
	C1400.333374,1.000000 1400.666626,1.000000 1401.000000,1.500000 
z"/>
<path fill="#FEFFFE" opacity="1.000000" stroke="none" 
	d="
M291.368530,832.528564 
	C286.128387,846.540649 284.741302,860.204956 292.928009,873.134277 
	C300.061798,884.400818 311.284698,890.787231 323.130432,895.934326 
	C348.072998,906.772278 374.491302,912.777222 400.810944,919.030518 
	C441.992096,928.814941 483.256226,938.389709 522.350891,955.089233 
	C552.162903,967.823608 579.389465,984.422058 600.345398,1009.923096 
	C619.082397,1032.723877 629.032104,1058.990234 632.240723,1088.118774 
	C635.703735,1119.555786 632.672119,1150.233521 621.600281,1179.915894 
	C607.044189,1218.939087 580.739136,1248.011841 544.975281,1268.759644 
	C517.316528,1284.805420 487.212769,1293.940430 455.808868,1298.818604 
	C419.785461,1304.414673 383.455750,1305.614380 347.190796,1302.662476 
	C300.474274,1298.859985 256.211029,1285.798828 214.709198,1263.787354 
	C190.508179,1250.951660 168.113358,1235.492554 147.545197,1217.394653 
	C142.121597,1212.622437 140.908264,1205.312744 145.091141,1199.416748 
	C163.185455,1173.911621 181.346069,1148.452271 199.671890,1123.113403 
	C205.075226,1115.642090 213.157715,1115.062012 220.437057,1121.571655 
	C234.373901,1134.034912 249.166275,1145.283447 265.308594,1154.738892 
	C299.813843,1174.950562 336.917999,1186.965454 376.823975,1190.207031 
	C403.235962,1192.352539 429.416321,1191.751221 454.763458,1182.940796 
	C473.673126,1176.368042 489.799438,1165.990112 499.322876,1147.572876 
	C510.087524,1126.755249 505.039978,1103.918457 486.680420,1089.461670 
	C470.660217,1076.846924 451.819427,1070.204346 432.536560,1065.058838 
	C396.133301,1055.345215 359.470215,1046.607666 323.045898,1036.970093 
	C294.743073,1029.481323 267.259979,1019.608276 241.573944,1005.312927 
	C207.687912,986.453918 181.185928,960.827393 167.661209,923.545044 
	C159.003632,899.679504 156.031281,874.912415 158.623764,849.836060 
	C166.154388,776.994568 208.414276,730.547302 273.365936,702.402405 
	C303.533417,689.330200 335.471741,683.410522 368.345123,681.883545 
	C392.871552,680.744324 417.292633,680.770752 441.663757,683.914307 
	C482.430450,689.172668 521.299072,700.825256 557.180542,720.881470 
	C575.541443,731.144531 592.697510,743.594971 610.183899,755.374817 
	C617.084229,760.023132 617.950256,767.858276 612.909607,774.561829 
	C594.807312,798.636108 576.675720,822.688721 558.454468,846.672974 
	C551.874817,855.333618 544.793823,856.087891 536.170898,849.298218 
	C499.855103,820.703430 458.686157,802.984436 413.115326,796.309998 
	C386.398132,792.396912 359.352173,790.853088 332.887543,798.965393 
	C314.759583,804.522156 299.604950,813.991943 291.368530,832.528564 
z"/>
<path fill="#FEFFFE" opacity="1.000000" stroke="none" 
	d="
M693.082520,1055.049438 
	C695.283630,998.207397 715.140808,948.993469 753.079712,907.255737 
	C786.498779,870.490356 827.912048,847.135193 876.511414,837.850159 
	C931.723938,827.301636 985.294678,833.212891 1035.220093,860.439453 
	C1073.130493,881.113647 1101.035767,911.815857 1120.500610,950.269470 
	C1138.996338,986.808228 1147.337524,1025.835327 1148.966675,1066.502563 
	C1149.293335,1074.660278 1149.613647,1082.819458 1149.804688,1090.980957 
	C1150.069214,1102.287354 1146.081055,1106.253418 1134.602051,1106.256958 
	C1105.107422,1106.265747 1075.612671,1106.260132 1046.118042,1106.260132 
	C972.631226,1106.260254 899.144470,1106.260010 825.657654,1106.261230 
	C817.585815,1106.261353 816.838257,1107.062256 818.762268,1114.948364 
	C830.810608,1164.331177 861.850220,1195.244507 910.852478,1207.494263 
	C932.803406,1212.981567 955.240173,1210.598511 977.315979,1206.593994 
	C1005.672546,1201.450195 1031.560303,1190.267944 1055.180786,1173.777588 
	C1061.572021,1169.315674 1068.204102,1170.126831 1072.643799,1176.515015 
	C1085.548096,1195.083252 1098.263672,1213.784668 1110.875732,1232.553101 
	C1115.104126,1238.845459 1113.468262,1245.121826 1106.942505,1249.819702 
	C1080.686279,1268.721313 1051.917603,1282.462158 1020.994568,1291.849121 
	C987.327759,1302.069092 952.756348,1304.119507 917.854675,1303.966797 
	C821.955383,1303.546753 735.315369,1240.575317 704.808594,1149.536987 
	C694.529785,1118.862793 692.117920,1087.479126 693.082520,1055.049438 
M836.500732,1026.177856 
	C900.112122,1026.177979 963.723572,1026.178345 1027.334961,1026.176636 
	C1028.833374,1026.176514 1030.683594,1026.700806 1031.748291,1026.015503 
	C1033.364136,1024.975098 1035.692993,1022.958313 1035.551392,1021.578552 
	C1032.525024,992.057068 1019.698242,967.642029 996.386414,949.116150 
	C974.817932,931.975647 949.865662,926.083557 922.662354,927.037048 
	C885.860352,928.326965 856.298218,943.042969 834.593323,972.910461 
	C824.556458,986.721924 818.659424,1002.317261 816.168457,1019.187805 
	C815.305420,1025.032837 816.382385,1026.145264 822.512512,1026.175171 
	C826.842041,1026.196289 831.171631,1026.178345 836.500732,1026.177856 
z"/>
<path fill="#A8D3A6" opacity="1.000000" stroke="none" 
	d="
M1280.189941,2.773185 
	C1280.169189,2.447362 1280.433105,2.259298 1280.946045,2.016583 
	C1281.195190,1.961933 1281.148682,2.386474 1281.124023,2.598592 
	C1280.891113,2.844121 1280.682861,2.877533 1280.189941,2.773185 
z"/>
<path fill="#01B401" opacity="1.000000" stroke="none" 
	d="
M836.000977,1026.177856 
	C831.171631,1026.178345 826.842041,1026.196289 822.512512,1026.175171 
	C816.382385,1026.145264 815.305420,1025.032837 816.168457,1019.187805 
	C818.659424,1002.317261 824.556458,986.721924 834.593323,972.910461 
	C856.298218,943.042969 885.860352,928.326965 922.662354,927.037048 
	C949.865662,926.083557 974.817932,931.975647 996.386414,949.116150 
	C1019.698242,967.642029 1032.525024,992.057068 1035.551392,1021.578552 
	C1035.692993,1022.958313 1033.364136,1024.975098 1031.748291,1026.015503 
	C1030.683594,1026.700806 1028.833374,1026.176514 1027.334961,1026.176636 
	C963.723572,1026.178345 900.112122,1026.177979 836.000977,1026.177856 
z"/>
</svg>